<svg xmlns="http://www.w3.org/2000/svg" baseProfile="tiny" version="1.2" viewBox="0 0 633 244"><path fill="#2474cc" d="M633 138.63v2.86l-9.59 57.16a.43.42 4.8 0 1-.42.35h-15.18a.44.44 0 0 1-.44-.44l.1-8.5a.32.32 0 0 0-.51-.26q-8.65 6.54-17.49 9.5c-18.27 6.11-35.68-4.13-30.17-24.98 2.75-10.42 11.4-17.05 21.25-20.68q14.32-5.28 31.81-6.77.54-.05.65-.58c1.6-7.92-1.47-14.78-10.45-15.43-8.81-.63-18.27 3.3-26.05 7.65q-.54.31-.76-.27l-4.43-11.79q-.23-.6.33-.91 17.16-9.65 33.2-10.5c12.8-.68 24.71 3.64 27.37 17.72q.32 1.73.78 5.87Zm-22.94 20.09c-9.26 1.12-25.48 3.65-30.59 12.62-3.18 5.58-2.31 12.79 5.23 14.09 8.41 1.45 16.31-3.08 22.63-8.39a1.49 1.45-15.6 0 0 .51-.88l2.93-16.69q.15-.86-.71-.75ZM92.08 138.6a.29.29 0 0 0 .4.39l225-137.43q.11-.07.18.03v.01q.07.1-.03.18L1.01 243.21q-.95.72-.37-.32L134.31 4.65a.29.28-41.4 0 1 .51.03l31.91 80.59q.18.46-.23.72l-24.73 15.58a.29.29 0 0 1-.42-.15l-11.08-30.18q-.26-.7-.62-.05L92.08 138.6Zm173.73-7.86q-.17 1.94.99.38c6.92-9.28 16.93-16.98 28.81-16.03q3.25.26 5.93 1.54.58.28.35.87l-5.93 15.54q-.24.63-.89.42c-12.59-4.11-22.32 3.26-28.92 13.31q-1.51 2.3-2.01 5.2-4.05 23.41-8.13 46.44-.11.59-.71.59h-18.57a.32.31-85.3 0 1-.31-.37l14.3-81.05q.1-.58.7-.58h15.07q.48 0 .44.48l-1.12 13.26Zm131.62 32.21q-.32 4.41.68 8.36c4.77 18.9 26.15 16.81 39.57 8.71q.53-.32.75.26l4.1 11.21q.19.53-.29.81c-13.45 7.83-31.39 12.06-46.2 5.28-24.92-11.42-20.03-45.77-6.7-63.37 8.74-11.53 22.82-19.76 37.6-19.14 26.88 1.14 30.76 26.09 23.56 46.8q-.13.38-.53.38h-51.78q-.71 0-.76.7Zm26.21-32.87c-11.81-.34-20.37 8.41-24.02 19.35q-.19.57.41.57h35.96q.31 0 .38-.31c2.04-9.84-.83-19.26-12.73-19.61Zm69.75-2.57q-.08 1.28.91.46c11.09-9.3 23.91-15.82 37.94-11.73 13.96 4.07 13.13 20.93 11.18 31.94q-4.47 25.18-8.93 50.57a.3.29-85.4 0 1-.29.25h-18.72q-.59 0-.49-.59 4.42-24.73 8.85-50.27.62-3.61.32-7.74c-.74-10.15-12-9.9-18.64-6.9q-5.69 2.57-12.15 8.13-.42.37-.52.92L483 198.43q-.1.57-.68.57h-18.59a.32.31-85.3 0 1-.31-.37l14.3-81.05q.1-.58.7-.58h15.07q.48 0 .45.48l-.55 10.03Zm-161.26 41.12a.61.61 0 0 0-1.07-.11q-10.22 15.41-21.05 30.08-.3.4-.8.4l-19.43-.01a.22.22 0 0 1-.17-.35l33.56-42.19a.44.43-38.1 0 0 .06-.45l-17.55-38.59a.29.29 0 0 1 .26-.41h20.04q.58 0 .82.54 5.84 13.12 11.38 28.55a.53.53 0 0 0 .95.11q8.92-14.3 19.16-28.72.34-.48.93-.48h18.81q.8 0 .31.63l-31.17 40.47a.66.65 51.2 0 0-.07.69l18.91 39.76q.21.45-.29.45h-20q-.56 0-.8-.51-6.97-14.96-12.79-29.86Zm-154.57 31.12-24.46-64.11a.35.35 0 0 1 .12-.4l23.52-17.93a.35.35 0 0 1 .54.16l29.52 80.88a.35.35 0 0 1-.32.47l-28.58 1.16a.35.35 0 0 1-.34-.23Z"/></svg>